<svg width="1757" height="159" viewBox="0 0 1757 159" fill="none" xmlns="http://www.w3.org/2000/svg">
<g clip-path="url(#clip0_206_582)">
<path d="M0 154.851V4.0957H74.5551C108.381 4.0957 128.983 21.8536 128.983 49.6751C128.983 74.0203 112.595 89.9849 87.2003 90.776C99.1076 91.6184 108.328 99.7348 114.915 114.488L133.04 154.851H96.1052L77.822 114.593C72.4483 102.684 67.6013 99.4172 55.1652 99.4172H33.2996V154.851H0ZM70.7083 72.5446C86.4625 72.5446 95.683 64.9037 95.683 51.7308C95.683 38.5579 86.7249 31.6015 70.6551 31.6015H33.2996V72.5446H70.7083Z" fill="white"/>
<path d="M248.534 4.14697V32.4972H177.719V66.1683H242.422V93.0408H177.719V126.501H250.429V154.849H144.419V4.14697H248.534Z" fill="white"/>
<path d="M386.579 51.6774H354.648C354.648 37.1866 342.161 28.1232 323.404 28.1232C307.703 28.1232 293.003 34.393 293.003 47.0924C293.003 59.1072 304.805 61.0564 326.882 64.3235L333.047 65.2192C358.233 68.9598 391.637 73.9137 391.637 109.692C391.637 141.36 365.502 158.011 325.196 158.011C281.78 158.011 257.543 138.673 257.543 105.951H289.473C289.473 121.602 303.014 130.928 324.986 130.928C343.692 130.928 358.655 124.131 358.655 110.376C358.655 96.6215 346.483 95.3588 325.829 92.4607L317.873 91.3006C293.056 87.8224 259.967 83.2907 259.967 48.9883C259.967 17.6887 287.682 1.0376 323.826 1.0376C362.5 1.0376 386.579 20.1646 386.579 51.6754V51.6774Z" fill="white"/>
<path d="M521.093 32.4972H474.304V154.851H441.004V32.4972H394.215V4.14697H521.091V32.4972H521.093Z" fill="white"/>
<path d="M596.705 0.986328C639.701 0.986328 669.996 32.1814 669.996 79.4989C669.996 126.816 639.699 158.011 596.705 158.011C553.712 158.011 523.468 126.816 523.468 79.4989C523.468 32.1814 553.71 0.986328 596.705 0.986328ZM596.705 129.454C621.996 129.454 636.485 111.696 636.485 79.5009C636.485 47.3055 621.996 29.5477 596.705 29.5477C571.415 29.5477 556.977 47.3055 556.977 79.5009C556.977 111.696 571.413 129.454 596.705 129.454Z" fill="white"/>
<path d="M752.663 4.14893C783.749 4.14893 803.981 18.7975 803.981 42.3517C803.981 61.2163 790.914 74.7582 772.946 76.8652C794.654 78.8677 810.355 93.6741 810.355 114.277C810.355 139.096 787.541 154.851 754.503 154.851H677.261V4.14893H752.661H752.663ZM770.999 48.2013C770.999 36.9776 762.832 30.8123 749.185 30.8123H710.563V66.8016H749.236C762.357 66.8016 770.997 59.7939 770.997 48.2013H770.999ZM752.136 128.19C768.681 128.19 777.058 122.289 777.058 109.641C777.058 96.9925 768.679 91.1449 752.187 91.1449H710.563V128.188H752.134L752.136 128.19Z" stroke="white" stroke-width="3" stroke-miterlimit="10"/>
<path d="M821.262 154.851V4.0957H895.818C929.644 4.0957 950.245 21.8536 950.245 49.6751C950.245 74.0184 933.86 89.9849 908.463 90.776C920.37 91.6184 929.591 99.7328 936.178 114.488L954.303 154.851H917.368L899.084 114.593C893.711 102.684 888.864 99.4172 876.428 99.4172H854.562V154.851H821.262ZM891.973 72.5427C907.727 72.5427 916.947 64.9017 916.947 51.7288C916.947 38.5559 907.991 31.5996 891.919 31.5996H854.562V72.5427H891.971H891.973Z" stroke="white" stroke-width="3" stroke-miterlimit="10"/>
<path d="M958.57 154.851L1010.52 4.14893H1057.2L1108.42 154.853H1072.96L1062.84 121.709H1003.57L993.345 154.853H958.57V154.851ZM1054.57 94.5165L1033.44 25.0673L1012 94.5165H1054.57Z" stroke="white" stroke-width="3" stroke-miterlimit="10"/>
<path d="M1253.84 154.851H1206.58L1147.78 33.9196V154.851H1115.85V4.14893H1166.22L1221.91 117.915V4.14893H1253.84V154.851Z" stroke="white" stroke-width="3" stroke-miterlimit="10"/>
<path d="M1268.38 4.14893H1323.33C1368.75 4.14893 1399.58 33.8151 1399.58 79.501C1399.58 125.187 1368.75 154.853 1323.33 154.853H1268.38V4.14893ZM1322.6 126.292C1350.16 126.292 1366.07 109.587 1366.07 79.499C1366.07 49.4107 1350.16 32.7063 1322.6 32.7063H1301.36V126.29H1322.6V126.292Z" stroke="white" stroke-width="3" stroke-miterlimit="10"/>
<path d="M1445.83 154.851H1412.53V4.14893H1445.83V154.851Z" stroke="white" stroke-width="3" stroke-miterlimit="10"/>
<path d="M1598.42 154.851H1551.16L1492.36 33.9196V154.851H1460.43V4.14893H1510.8L1566.49 117.915V4.14893H1598.42V154.851Z" stroke="white" stroke-width="3" stroke-miterlimit="10"/>
<path d="M1683.99 130.032C1706.38 130.032 1723.08 116.701 1724.35 96.7813H1682.35V74.2294H1756.01V154.851H1724.82V117.386C1716.81 142.309 1697.53 158.013 1672.55 158.013C1637.15 158.013 1611.38 126.134 1611.38 79.5009C1611.38 32.868 1641.63 0.986328 1684.57 0.986328C1720.13 0.986328 1748.16 22.9602 1754.49 58.4227H1721.4C1716.97 39.4535 1703.27 29.5457 1684.62 29.5457C1659.33 29.5457 1644.89 47.3035 1644.89 79.4989C1644.89 111.694 1658.86 130.032 1683.99 130.032Z" stroke="white" stroke-width="3" stroke-miterlimit="10"/>
</g>
<defs>
<clipPath id="clip0_206_582">
<rect width="1757" height="159" fill="white"/>
</clipPath>
</defs>
</svg>
